<?xml version="1.0" encoding="UTF-8"?>
<svg id="Layer_1" data-name="Layer 1" xmlns="http://www.w3.org/2000/svg" viewBox="0 0 377.47 312.87">
  <defs>
    <style>
      .cls-1 {
        fill: #f5b700;
      }
    </style>
  </defs>
  <g>
    <path class="cls-1" d="M169.3,80.99c.06,4.96,2.58.17,3,0,.65-.26,2.9.06,4,0,1.04,1.66,3.79,1,5.49,1.02,9.16.11,18.37-.23,27.51-.02,40.29.92,80.99,2.61,121.49,4.01,7.72.27,11.76.47,19.51-.01,8.53-.53,12.11,2.19,18,8-.64-.08-1.41.12-2,0-3.86-.81-5.7-4.81-10-3.99-.68,3.09,1.57,1.26,3.05,2.66s4.29,6.57,2.84,8.27c-.41.49-3.73-1.08-2.89,2.06-4.51-4.24-12.89-3.3-18-4-6.14-.84-10.58-1.74-17-2-4.11-.16-8.42-.14-12.55,0-1.92.06-4.01-1.02-3.45,2-3.98-.14-8.02.15-12,0v-3c-4.41-.27-9.1.38-13.48-.02-15.13-1.37-37.11-2.93-52.01-.94-1.87.25-4.06-1.28-3.5,1.95-8.64-.1-17.36-.09-26,0,.49-3.35-9.23-3.88-11.51-3.98-9.75-.44-18.45,3.8-28.49.99-1.31,3.36,4.22.87,2.99,3.48-.77,1.63-5.71,2.54-7.42,5.59-1.5,2.66-5.14,18.52-3.58,19.93.39.35,3.17-.5,3.89.1.2.16.54,3.39,1.62,4.89,1.26,1.76,4.2,2.45,4.99,4.02.65,1.29.37,3.85.5,4,.32.36,7.36-1.88,9.46-2.04,10.34-.79,21.73.85,32.08.04,3.07-.24,2.57.49,2.45-3,17.65.13,35.35-.09,53,0-.13.01-1.16.89-2.42,1.04-2.41.29-5.12-.26-7.58-.04-.45,4.25,5.43,1.99,6.49,1.99h28.5v-1.99c-2.54,1.03-5.59-.87-7-1.01,7.63-.56,14.03.59,21,3l-3.51,1c6.28,2.51,11.35,5.4,16.2,10.3.47.47,3.64,8.63,4.31,2.7,5.17,8.31,6.07,16.37,4,26l-1,1c-.08.32.09.7,0,1l-1,1c-.11.3.12.72,0,1l-1,2c-.14.26.14.76,0,1l-1,1c-.24.38-.74.64-1,1,.44-3-2.33-2.45-3-3-1.49-1.21-2.39-1.39-2-4,.3.1.72-.11,1,0,1.08.42.67,2.8,2.49,1.99,5.59-2.46,5.18-15.82,3.8-20.83-.49-1.78.32-2.58-2.29-2.17v16c-6.08.28-2.81-2.77-3-5.5-.1-1.48-.84-9.02-1.16-9.36s-2.04-.13-2.73-.7c-1.55-1.29-1.59-3.83-4.11-3.43-.9,1.03,3.66,8.63-1.01,7.99-1.9-6.61-5.34-10.63-12.59-11.91-38.76-2.69-81.69,3.27-119.95-.05-40.1-3.49-43.11-59.21-2.46-67.04Z"/>
    <path class="cls-1" d="M235.3,184.99c.09,7.56,9.03,3.5,13.52,3.96,10.81,1.1,23.34,3.28,33.48,5.04-.1.94-1.39,3.5-.97,3.96.16.18,2.43,0,2.97,1.04-36.83,1.55-74.67-1.22-111.62.07-.29.03-.7.04-1.19-.05-.35-.07-.6-.17-.79-.24-.36-.14-.86-.38-1.4-.78l-1.57-5.9c-2.33-2.12-2.37-3.2-2.43-6.1,2.82-.18,5.72.27,8.54.04,1.28-.11,2.63-1.04,2.96-1.04h47c3.58,0,7.57.04,11.5,0ZM261.31,196.99v1.01s7.99,0,7.99,0v-1.01s-7.99,0-7.99,0ZM278.3,197h-3.99v.98h3.99v-.98Z"/>
    <path class="cls-1" d="M366.3,93.99c-1.03,4.22,4.5,5.12,5.34,7.23,5.33,13.22,2.38,21.84-1.34,34.77-.53,1.83-1.71,3.39-1,6.01-5.11,1.54-2.56-6.07-4.48-9.02-2.37-3.63-4.08,1.94-3.31,5.3.88,3.84,5.62,4.81,3.63,11.06-1.48,4.65-5.35-2.7-6.83-1.34l-4.01,4c.81-4.87,3.74-7.96,4.03-11.5.27-3.27-.26-2.56-3.03-2.5.84-3.01,2.3-6.28,3-9,.99,2.47,2.75-.11,3.25-1.25.96-2.18.53-4.57,1.2-6.8.96-3.17,3.92-3.87,2.33-9.24-.15-.5-5.4-8.36-5.78-8.71-.83-3.14,2.48-1.57,2.89-2.06,1.44-1.7-1.42-6.91-2.84-8.27s-3.72.43-3.05-2.66c4.29-.82,6.13,3.19,10,3.99Z"/>
    <path class="cls-1" d="M208.3,130.99c.12,3.5.62,2.76-2.45,3-10.35.81-21.75-.83-32.08-.04-2.1.16-9.14,2.4-9.46,2.04-.13-.15.15-2.7-.5-4-.79-1.57-3.73-2.26-4.99-4.02-1.08-1.5-1.42-4.72-1.62-4.89-.72-.6-3.51.25-3.89-.1-1.56-1.41,2.08-17.27,3.58-19.93,1.71-3.05,6.65-3.95,7.42-5.59,1.23-2.61-4.3-.12-2.99-3.48,10.04,2.81,18.74-1.43,28.49-.99,2.28.1,12,.63,11.51,3.98-9.51.1-27.26-1.78-35.05,2.45-13.6,7.38-11.88,28.62,3.79,31.31,10.08,1.73,27.27.16,38.26.24Z"/>
    <path class="cls-1" d="M322.3,226.99c4.02-.27,1.53,2.51-.26,3.24-4.57,1.86-12.49,3.86-17.28,3.81-47.96-.53-96.93-2.7-145-1.09-4,.13-7.83,1.57-11.9,1.1-1.26-.34-.23-2.35-.55-3.05l158.54.04c5.56-.8,11.39-1.54,16.46-4.04Z"/>
    <path class="cls-1" d="M294.3,180.99c1.43,3.71-4.37,3.92-6.53,4-6.46.23-13.76-1.06-20.47-1-5.09.05-10.7.95-15,1-5.65.07-11.35-.06-17,0-3.93.04-7.92,0-11.5,0h-47c-.33,0-1.68.93-2.96,1.04-2.82.24-5.72-.21-8.54-.04-.01-.67,0-1.33,0-2,1.4-.75,2.46-2.22,4.45-2.04,38.5-2.01,79.94,2.83,118.09.09,1.87-.13,4.7-.53,6.46-1.04Z"/>
    <path class="cls-1" d="M159.3,248.99c-.72-.09-2.41-1.68-4-1.01.33-5.27,6.07-2.06,9.46-1.95,36.77,1.15,73.76-.95,110.54-.04.61,4.32-6.9.26-8.99,2.99-33.43-3.08-74.46,4.11-107,0Z"/>
    <path class="cls-1" d="M356.33,86.28c-3.08.03-7.6.05-13.06-.01-5.97-.07-10.48-.2-12.47-.27-40.5-1.41-81.2-3.09-121.49-4.01v-1c5.93-.4,11.93-.74,18-1,41.99-1.83,81.65-.08,118.61,4.05,1.47.27,2.96.56,4.49.88,2.04.43,4.02.88,5.93,1.36Z"/>
    <path class="cls-1" d="M305.3,162.99c3.39-.52,7.36.18,5.9,4.4-.51,1.48-4.43,1.38-2.91,5.59l4.01,3c-.28-.11-.7.1-1,0-9.08-3.07-11.61,5.42-.99,4,.97,6.86-3.46,3.94-6.99,5.51-1.81.8-3.53,4.12-6.98,5.02-7.44,1.94-10.3-1-15.58-1.48-3.14-.28-6.32.07-9.45-.05.78-3.29-4.43-1.13-4-5,6.71-.06,14.01,1.23,20.47,1,2.15-.08,7.96-.29,6.53-4,7.21-2.1,8.56-6.72,10-13l1-1c.12-1.18.09-2.79,0-4Z"/>
    <path class="cls-1" d="M227.3,96.99c-.56-3.23,1.64-1.7,3.5-1.95,14.91-1.99,36.89-.43,52.01.94,4.38.4,9.07-.25,13.49.02v2c-2.83.38-6.96-1.08-9.01,1-19.94-.66-39.97-1.78-60-2Z"/>
    <path class="cls-1" d="M274.3,249.99c.89.33,2.59-.86,1.95,1.44-.52,1.89-2.95,3.41-3.69,5.32-1.39,3.6-1.76,10.37-2.52,14.47-.27,1.46-1.75,2.86-1.74,4.28.03,2.28,3.2,3.19,3.79,5.18.87,2.92-.56,7.23.32,9.68.73,2.03,3.59,1.03,3.95,2.23.31,1.03.8,5.3-2.07,4.38-11.01-13.76-11.05-33.05,0-47Z"/>
    <path class="cls-1" d="M304.3,159.99c4.66.63.11-6.97,1.01-7.99,2.52-.4,2.56,2.14,4.11,3.43.7.58,2.41.36,2.73.7s1.05,7.89,1.16,9.36c.19,2.73-3.09,5.77,3,5.5v-16c2.61-.42,1.79.39,2.29,2.17,1.38,5.01,1.79,18.37-3.8,20.83-1.82.8-1.41-1.57-2.49-1.99l-4.01-3c-1.53-4.21,2.39-4.11,2.91-5.59,1.46-4.22-2.51-4.92-5.9-4.4-.03-.4-.76-2.17-1-3Z"/>
    <path class="cls-1" d="M316.3,182.99c-9.11,12.73-16.55,15.35-32,16-.55-1.05-2.81-.87-2.97-1.04-.42-.45.87-3.01.97-3.96,4.16.72,11.07,1.73,14.95.45,4.25-1.41,17.32-8.68,16.05-14.45.67.55,3.44,0,3,3Z"/>
    <path class="cls-1" d="M359.3,102.99c.38.36,5.63,8.21,5.78,8.71,1.59,5.37-1.37,6.07-2.33,9.24-.67,2.22-.24,4.61-1.2,6.8-.5,1.14-2.26,3.72-3.25,1.25,1.97-7.64,4.81-15.12-.14-22.36-4.33-6.31-10.71-4.9-16.86-5.64v-2c5.11.7,13.49-.24,18,4Z"/>
    <path class="cls-1" d="M368.3,93.99c14.85,14.65,8.17,25.41,4,42h-2c3.73-12.93,6.67-21.55,1.34-34.77-.85-2.1-6.37-3.01-5.34-7.23.59.12,1.36-.08,2,0Z"/>
    <path class="cls-1" d="M348.3,161.99c6.73,1.58,1.25,5.17,1.06,5.74-1.78,5.44-3.88,14.16-4.99,19.84-.52,2.63.85,5.77-1.06,7.94-.49.56-3.64,2.39-4.02.49,2.84-9.5,5.17-20.16,8-30l1-3c.09-.31-.09-.69,0-1Z"/>
    <path class="cls-1" d="M264.3,130.99l.5.98.5-.98c4.29-.13,9.85-.41,14,0,1.41.14,4.46,2.03,7,1.01v1.99s-28.5,0-28.5,0c-1.06,0-6.94,2.26-6.49-1.99,2.46-.22,5.17.33,7.58.04,1.26-.15,2.29-1.03,2.42-1.04.99-.08,2.01.05,3,0Z"/>
    <path class="cls-1" d="M355.3,137.99c2.76-.06,3.29-.77,3.03,2.5-.29,3.55-3.22,6.64-4.03,11.5-.03.19-.95.64-.94,1.49.02,2.24,3.34,6.11,1.94,9.5-4.55.38.84-6.64-4.99-6.99,1.48-5.25,2.54-10.75,4-16l1-1c.09-.31-.09-.69,0-1Z"/>
    <path class="cls-1" d="M166.03,185.85c0,.08-.03.61.06,1.67.09,1,.14,1.51.41,2.03.24.46.41.48,1.06,1.29.19.24.45.55.9,1.23.58.88,2.03,3.46,3.82,7.01-.33-.01-.6-.05-.79-.07-.17-.02-.26-.04-1.1-.22-.47-.1-.47-.1-.51-.11-.36-.08-.68-.16-1.09-.27-1.02-.27-1.7-.41-2.52-.77,0,0-.72-.31-1.33-.69-1.27-.78-4.54-4.28-3.48-8.74.91-3.84,4.5-6.21,7.26-6.25.06,0,.11,0,.14,0,0,0-.69.19-.78.22-.84.25-1.9,1.88-2.07,3.67Z"/>
    <path class="cls-1" d="M300.3,133.99c8.92,3.08,12,5.96,17,14-.67,5.92-3.84-2.23-4.31-2.7-4.85-4.9-9.92-7.79-16.2-10.3l3.51-1Z"/>
    <path class="cls-1" d="M335.3,207.99l3.02.51c-4.04,3.65.23,6.76-.02,7.93-.2.96-3.08,1.9-4.05,3.04-1.37,1.61-2.05,6.82-6.94,4.52,4.85-4.04,6.14-10.34,8-16Z"/>
    <path class="cls-1" d="M330.3,244.99c3.1,2.23,8.52,10.31,10,14-3.78,5.94-4.91-3.23-6.14-5.36-1.79-3.11-4.84-6.99-8.86-6.65-.08-3.3,2.66-3.68,5-1.99Z"/>
    <path class="cls-1" d="M356.3,192.99c-.16.56.16,1.44,0,2-3.35-.74-1.6,2.42-2,5-.79,5.13-2.48,10.06-4,15-2.39-5.59-.05-14.67,2.71-19.83.93-1.74-.42-2.8,3.29-2.17Z"/>
    <path class="cls-1" d="M227.3,79.99c-5.41,0-12.11.94-18,1-10.84.11-22.26-.56-33,0-1.1.06-3.35-.26-4,0v-1c17.31-1.75,37.38,1.3,55,0Z"/>
    <path class="cls-1" d="M324.3,96.99c-1.05,1.73,2.49,2.79,4,3-6.69.86-13.66-.77-20-1-.56-3.02,1.53-1.94,3.45-2,4.13-.14,8.43-.16,12.55,0Z"/>
    <path class="cls-1" d="M300.3,311.99c-.55-3.62,6.08-1.66,8.45-2.05,2.1-.35,7.36-5.24,6.55,1.05-6.98,1.99-7.94,2-15,1Z"/>
    <path class="cls-1" d="M341.3,98.99v2c-4.39-.53-9.09-.46-13-1-1.51-.21-5.05-1.27-4-3,6.42.26,10.86,1.16,17,2Z"/>
    <path class="cls-1" d="M330.3,240.99c-.06-.09-2.02.29-2.06-.54-.16-3.47,5.48-5.36,8.38-6.65,1.89-.84,3.02-1.97,2.69,1.19-2.7,2.5-5.53,4.64-9,6Z"/>
    <path class="cls-1" d="M284.3,305.99c2.78-1.71,11.61,1.44,12,5-5.71-1.53-6.75-1.59-12-5Z"/>
    <path class="cls-1" d="M296.3,97.99v1c-2.99-.11-6.01.1-9,0,2.05-2.08,6.18-.62,9-1Z"/>
    <path class="cls-1" d="M172.3,79.99v1c-.42.17-2.94,4.96-3,0,.85-.16,1.79-.88,3-1Z"/>
    <path class="cls-1" d="M356.3,194.99c-.47,1.66-.86,3.62-2,5,.4-2.58-1.35-5.74,2-5Z"/>
    <path class="cls-1" d="M347.3,165.99c.33-1.16.79-2.25,1-3l-1,3Z"/>
    <path class="cls-1" d="M318.3,179.99l1-2c-.39.92-.59,1.23-1,2Z"/>
    <path class="cls-1" d="M304.3,167.99c.18-.79.99-.93,1-1l-1,1Z"/>
    <path class="cls-1" d="M319.3,176.99l1-1c-.17.55-.94.85-1,1Z"/>
    <path class="cls-1" d="M317.3,181.99l1-1c-.27.46-.81.71-1,1Z"/>
    <path class="cls-1" d="M264.3,130.99c.33-.02.67.01,1,0l-.5.98-.5-.98Z"/>
    <path class="cls-1" d="M354.3,139.99c.18-.63.98-.93,1-1l-1,1Z"/>
    <path class="cls-1" d="M320.3,174.99l1-1c-.16.74-.98.93-1,1Z"/>
    <path class="cls-1" d="M319.3,256.99c-8.65-7.96-20.81-5.74-30,0,.01-.13-1.72.3-.52-2.01,2.86-5.52,7.16-4.43,11.8-5.21s7.05-1.14,12.16-.73c3.34.27,3.86,2.25,5.63,4.38.69.83,3.25,2.8.94,3.56Z"/>
    <path class="cls-1" d="M323.3,261.99c5.66-.43,6.14,8.59,6,12.48-.08,2.06-1.04,8.53-1.75,10.27-.25.63-6.37,8.71-6.25,3.25,5.47-7.39,6.34-17.82,2-26Z"/>
    <path class="cls-1" d="M314.3,293.99c-.27.53.72,2.34-.64,3.04-2.14,1.09-14.53,4.16-14.36-1.04,5.03-.23,10.2-.13,15-2Z"/>
    <path class="cls-1" d="M294.3,293.99c.91.75,2.14,1.16,3,2-.12,0-.67.99-2.18.84-1.87-.19-5.31-1.46-4.81-3.83l4,.99Z"/>
    <path class="cls-1" d="M311.3,175.99c-.39,2.61.51,2.79,2,4,1.27,5.76-11.81,13.04-16.05,14.45-3.88,1.29-10.79.28-14.95-.45-10.14-1.77-22.67-3.95-33.48-5.04-4.49-.46-13.43,3.6-13.52-3.96,5.65-.06,11.35.07,17,0,1.16,6.48,13.42,3.78,19,4,3.13.12,6.31-.23,9.45.05,5.27.48,8.14,3.41,15.58,1.48,3.46-.9,5.17-4.21,6.98-5.02,3.53-1.57,7.96,1.35,6.99-5.51-10.62,1.42-8.08-7.08.99-4Z"/>
    <path class="cls-1" d="M209.3,80.99v1c-9.15-.21-18.35.13-27.51.02-1.69-.02-4.45.64-5.49-1.02,10.74-.56,22.16.11,33,0Z"/>
    <rect class="cls-1" x="264.8" y="193.5" width="1.01" height="7.99" transform="translate(67.69 462.71) rotate(-89.97)"/>
    <rect class="cls-1" x="274.31" y="197" width="3.99" height=".98"/>
    <path class="cls-1" d="M267.3,183.99c-.43,3.87,4.78,1.71,4,5-5.58-.22-17.84,2.48-19-4,4.3-.05,9.91-.95,15-1Z"/>
  </g>
  <g>
    <g>
      <path class="cls-1" d="M133.3,6.99c-5.17-.08,1.07,4.01,1.49,5.02.69,1.63.2,4.27.68,4.82.31.36,1.92.2,2.71.73.9.6,3.92,6.67,4.12,1.43,1.02,2.41,2.33,6.35,2.49,11.36.14,4.56-.73,8.25-1.49,10.64-.79-6.43-4.9,4.81-5.01,6-1.69,1.27-5.59-5.51-6.98-3.99-2.43,2.66,3.79,4.72,3.99,5.01,1.27,1.86-7.91,8.27-8.99,10.98-3.41-1.02-5.7,1.85-8.49,2.09-4.63.41-8.45-2.79-13.82-.09-.57.29-.55,1.79-1.39,1.98-3.81.85-16.28-2.44-15.18,4.29.16.97,2.86,6.4,4.87,5.73,5.3,19.22,14.41,42.5,21,62-2.93-.58-2.04,1.58-2.03,3.49.02,4.94.95,15.14,6.03,7.51,9.11,26.95,18.61,59.64,30,85,.31.7-.71,2.71.55,3.05,4.07.47,7.91-.97,11.9-1.1,48.07-1.61,97.04.56,145,1.09,4.79.05,12.72-1.95,17.28-3.81,1.79-.73,4.28-3.51.26-3.24.45-.22,4.78-2.81,5-3,4.9,2.3,5.57-2.9,6.94-4.52.97-1.14,3.85-2.09,4.05-3.04.25-1.17-4.02-4.28.02-7.93l-3.02-.51c1.26-3.83,2.93-8.41,4-12,.37,1.9,3.53.07,4.02-.49,1.91-2.17.54-5.31,1.06-7.94,1.11-5.68,3.2-14.4,4.99-19.84.19-.57,5.67-4.15-1.06-5.74.6-2.11,1.49-4.18,2-6,5.84.36.44,7.38,4.99,6.99,1.4-3.39-1.92-7.26-1.94-9.5,0-.85.91-1.31.94-1.49l4.01-4c1.48-1.37,5.35,5.99,6.83,1.34,1.99-6.25-2.75-7.22-3.63-11.06-.77-3.36.94-8.94,3.31-5.3,1.93,2.96-.63,10.56,4.48,9.02-.71-2.61.48-4.18,1-6.01h2c-4.83,19.22-10.48,37.97-16,57-3.71-.62-2.36.43-3.29,2.17-2.75,5.16-5.1,14.24-2.71,19.83-2.8,9.12-3.4,12.96-11,20,.33-3.15-.8-2.03-2.69-1.19-2.89,1.29-8.54,3.18-8.38,6.65.04.82,2,.45,2.06.54.13.17-1.51,2.87,0,4-2.34-1.68-5.08-1.31-5,1.99,4.02-.34,7.07,3.54,8.86,6.65,1.23,2.13,2.36,11.31,6.14,5.36,8.65,21.52-2.81,45.66-25,52,.81-6.29-4.45-1.39-6.55-1.05-2.37.39-9-1.57-8.45,2.05-2.01-.29-2.46-.59-4-1-.39-3.56-9.22-6.71-12-5-4.58-2.97-6.46-4.58-10-9,2.86.92,2.37-3.36,2.07-4.38-.36-1.2-3.21-.2-3.95-2.23-.88-2.45.55-6.76-.32-9.68-.59-1.99-3.76-2.9-3.79-5.18-.02-1.42,1.47-2.83,1.74-4.28.76-4.1,1.13-10.88,2.52-14.47.74-1.91,3.16-3.43,3.69-5.32.64-2.31-1.06-1.12-1.95-1.44-2.91-1.06-4.73-1.37-8-1,2.09-2.73,9.61,1.33,8.99-2.99-36.77-.91-73.77,1.19-110.54.04-3.39-.11-9.14-3.32-9.46,1.95,1.59-.68,3.29.91,4,1.01-5.92-1.37.04,5.73.78,7.72,8.05,21.46,1.9,43.03-19.78,52.28.38-3.32-.96-1.69-2.78-1.29-14.62,3.21-14.12,1.98-27.36-2.08-1.89-.58-3.29-1.66-2.86,1.36-35.82-19.03-21.75-70.69,15.66-72.94,3.67-.22,5.45,2.88,6.11-1.8-6.42-20.9-13.75-41.55-20.76-62.26,2.91.57,2.14-1.56,1.98-3.45-.26-3.14-2.86-13.7-5.98-7.55-9.36-27.65-19.62-55.36-28.29-83.21-.47-1.51-3.07-10.29-2.71-10.79.1-.14,3.84.27,1.99-1.98-2.53-3.08-12.55-1.62-16.48-2.03-6.53-.68-13.73-2.56-20.02-3.02-1.85-.14-4.09-.82-3.49,2.03-6.94-1.02-31.58-2.58-34.48-9.01-1.55-3.44-1.06-8.63,2.74-10.23,7.08-2.97,29.48,2.97,38.37,4.11,3.52.45,26.4,3.1,27.38,2.13-3.97-34.02,35.2-60.03,63.99-40.01ZM122.3,18.99c2.7.42,2.68-.98,1.06-2.56-3.52-3.41-24.05-2.39-27.54.57-2.27,1.93-8.03,9-9.36,11.64-2.35,4.69-6.63,18.42-1.14,21.85,1.31.82,2.62.39,3.98.49,8.81.65,27.16.43,34.38-4.92,1.76-1.31.5-2.58-1.38-2.08,1.24-1.06,3.2-3.02,4.64-6.06,1.11-2.34,1.51-4.48,1.66-5.94,1.41.28,2.07-.18,2.28-.35,1.25-1.01.58-3.39.19-4.92-.61-2.4-1.35-3.17-2.02-3.29-.37-.07-.77.49-1.75.57-.06,0-.12,0-.15,0l-4.85-5.01ZM289.3,256.99c-.27,2.56-4.69,6.7-5.56,10.94-2.37,11.55,2.09,19.04,10.56,26.06l-4-.99c-.5,2.37,2.95,3.65,4.81,3.83,1.51.15,2.07-.84,2.18-.84.66,0,1.34.03,2,0-.17,5.2,12.22,2.13,14.36,1.04,1.36-.69.37-2.5.64-3.04.21-.42,5.36-3.78,7-6-.12,5.46,6-2.62,6.25-3.25.71-1.74,1.67-8.21,1.75-10.27.14-3.89-.33-12.91-6-12.48-.15-.28-3.76-4.78-4-5,2.31-.76-.25-2.73-.94-3.56-1.76-2.13-2.28-4.11-5.63-4.38-5.11-.41-7.41-.07-12.16.73s-8.94-.31-11.8,5.21c-1.2,2.31.54,1.87.52,2.01ZM144.96,282.83c-.29,2.89,1.97,2.86,2.85,1.17s.13-3.78.54-5.45c.43-1.79,2.1-2.83,1.82-4.81-1.23-8.53-3.69-13-8.87-19.24-.92-1.1-1.09-3.48-1.95-4.08-1.75-1.23-3.87.54-5.42.29-1.36-.22-2.59-1.54-4.18-1.66-3.84-.29-12.66.01-15.83,2.07-1.82,1.18-3.69,2.9.59,3.27-6.66,3.65-10.95,10.49-11.35,18.08s3.16,14.84,9.4,19.17c-4.43,3.51,6.93,7.11,8.32,7.33,2.55.41,14.05-2.12,16.74-3.18,1.61-.63,1.32-2.69,3.59-3.36,1.44-.43,4.9-.27,5.1-.43,1.06-.88-.37-6.3-3.92-4.93,1.01-1.31,1.88-2.72,2.57-4.22Z"/>
      <path class="cls-1" d="M126.3,58.99c-.18.45.12,1.39,0,2-10.36,4.83-23.72,4.87-35,5.01,1.02,2.07.53,5.31,1,6.99-2.01.67-4.72-4.75-4.87-5.73-1.1-6.74,11.37-3.44,15.18-4.29.84-.19.82-1.69,1.39-1.98,5.37-2.7,9.18.5,13.82.09,2.79-.25,5.09-3.12,8.49-2.09Z"/>
      <path class="cls-1" d="M35.3,59.99c-.6-2.86,1.64-2.17,3.49-2.03,6.29.47,13.49,2.35,20.02,3.02,3.93.41,13.95-1.05,16.48,2.03,1.85,2.25-1.89,1.84-1.99,1.98-12.73-1.25-25.36-3.14-38-5Z"/>
      <path class="cls-1" d="M126.3,58.99c1.09-2.71,10.26-9.12,8.99-10.98-.2-.29-6.42-2.36-3.99-5.01,1.39-1.52,5.29,5.26,6.98,3.99.11-1.19,4.22-12.43,5.01-6-2.66,9.19-8.09,15.85-17,20,.12-.61-.18-1.55,0-2Z"/>
      <path class="cls-1" d="M133.3,6.99c1.46.97,3.57,2.62,5.51,5.19,1.96,2.61,2.97,5.13,3.49,6.81-.19,5.24-3.22-.83-4.12-1.43-.79-.53-2.4-.37-2.71-.73-.48-.55,0-3.19-.68-4.82-.42-1.01-6.66-5.1-1.49-5.02Z"/>
      <path class="cls-1" d="M113.3,134.99c1.22,3.6,2.74,7.27,4,11-5.08,7.63-6.01-2.58-6.03-7.51,0-1.91-.9-4.06,2.03-3.49Z"/>
      <path class="cls-1" d="M104.3,158.99c3.12-6.15,5.72,4.41,5.98,7.55.16,1.88.92,4.02-1.98,3.45-1.24-3.67-2.76-7.33-4-11Z"/>
      <path class="cls-1" d="M89.3,50.99c-1.35-.1-2.67.33-3.98-.49-5.49-3.43-1.21-17.16,1.14-21.85,1.33-2.65,7.09-9.71,9.36-11.64,3.49-2.96,24.02-3.98,27.54-.57.4.39,1.37,1.53,1.03,2.17-.33.62-1.75.46-2.06.42-.49-.34-1.24-.81-2.22-1.23,0,0-1.09-.55-2.37-.74-21.11-3.06-33.53,11.63-31.45,31.94,1.33.07,2.68-.09,4,0l-1,2Z"/>
      <path class="cls-1" d="M122.3,43.99c1.89-.51,3.14.77,1.38,2.08-7.22,5.36-25.57,5.58-34.38,4.92l1-2c8.32.5,25.62.63,32-5Z"/>
      <path class="cls-1" d="M127.09,23.92c.39-.28,1.2-.77,2.02-.55,1.17.31,1.58,1.86,1.97,3.35.42,1.62,1.03,3.93-.19,4.92-.21.17-.88.63-2.28.35.04-.29.08-.63.09-1,0-.16.02-.54-.02-1-.05-.75-.19-1.35-.3-1.81-.43-1.73-1.18-3.95-1.29-4.26Z"/>
      <path class="cls-1" d="M129.3,30.99c-.2-.14-.41-.27-.61-.41"/>
    </g>
    <g>
      <path class="cls-1" d="M107.3,306.99c-.43-3.03.97-1.94,2.86-1.36,13.24,4.06,12.74,5.28,27.36,2.08,1.82-.4,3.16-2.03,2.78,1.29-13.8,5.89-19.94,4.94-33-2Z"/>
      <path class="cls-1" d="M114.51,254.38c-4.28-.36-2.41-2.09-.59-3.27,3.17-2.05,11.99-2.36,15.83-2.07,1.59.12,2.82,1.45,4.18,1.66,1.55.25,3.67-1.52,5.42-.29.85.6,1.03,2.98,1.95,4.08,5.19,6.24,7.65,10.72,8.87,19.24.28,1.98-1.38,3.02-1.82,4.81-.4,1.67.39,3.68-.54,5.45s-3.14,1.72-2.85-1.17c3.99-8.6,2-18.78-4.92-25.25s-17.22-7.76-25.53-3.2Z"/>
      <path class="cls-1" d="M142.39,287.06c3.55-1.37,4.98,4.05,3.92,4.93-.2.16-3.66,0-5.1.43-2.26.68-1.98,2.73-3.59,3.36-2.7,1.06-14.19,3.59-16.74,3.18-1.39-.23-12.75-3.83-8.32-7.33,9.58,6.65,22.68,4.64,29.83-4.56Z"/>
    </g>
  </g>
</svg>