<svg width="61" height="43" viewBox="0 0 61 43" fill="none" xmlns="http://www.w3.org/2000/svg">
<path d="M2.24817 5.86138C7.00706 0.712872 11.7659 0.712872 16.5248 5.86138C11.7659 11.0099 7.00706 11.0099 2.24817 5.86138Z" stroke="#F5B800" stroke-width="4" stroke-linecap="round" stroke-linejoin="round"/>
<path d="M52.4204 6.63354H14.8932C11.7393 6.63354 9.18256 9.05387 9.18256 12.0395V28.2573C9.18256 31.2429 11.7393 33.6632 14.8932 33.6632H52.4204C55.5744 33.6632 58.1311 31.2429 58.1311 28.2573V12.0395C58.1311 9.05387 55.5744 6.63354 52.4204 6.63354Z" stroke="#F5B800" stroke-width="4" stroke-linecap="round" stroke-linejoin="round"/>
<path d="M20.6039 15.708H43.0386C44.7696 15.708 46.4296 16.3589 47.6535 17.5176C48.8775 18.6762 49.5651 20.2477 49.5651 21.8862C49.5651 23.5248 48.8775 25.0962 47.6535 26.2549C46.4296 27.4135 44.7696 28.0644 43.0386 28.0644H29.7817V15.708" stroke="#F5B800" stroke-width="4" stroke-linecap="round" stroke-linejoin="round"/>
<path d="M16.5248 41C18.3271 41 19.7881 39.617 19.7881 37.9109C19.7881 36.2048 18.3271 34.8218 16.5248 34.8218C14.7226 34.8218 13.2616 36.2048 13.2616 37.9109C13.2616 39.617 14.7226 41 16.5248 41Z" fill="#F5B800" stroke="#F5B800" stroke-width="4" stroke-linecap="round" stroke-linejoin="round"/>
<path d="M49.1572 41C50.9594 41 52.4204 39.617 52.4204 37.9109C52.4204 36.2048 50.9594 34.8218 49.1572 34.8218C47.3549 34.8218 45.8939 36.2048 45.8939 37.9109C45.8939 39.617 47.3549 41 49.1572 41Z" fill="#F5B800" stroke="#F5B800" stroke-width="4" stroke-linecap="round" stroke-linejoin="round"/>
</svg>
