<svg width="18" height="20" viewBox="0 0 18 20" fill="none" xmlns="http://www.w3.org/2000/svg">
<path d="M6.71 4.71L8 3.41V15C8 15.2652 8.10536 15.5196 8.29289 15.7071C8.48043 15.8946 8.73478 16 9 16C9.26522 16 9.51957 15.8946 9.70711 15.7071C9.89464 15.5196 10 15.2652 10 15V3.41L11.29 4.71C11.383 4.80373 11.4936 4.87812 11.6154 4.92889C11.7373 4.97966 11.868 5.0058 12 5.0058C12.132 5.0058 12.2627 4.97966 12.3846 4.92889C12.5064 4.87812 12.617 4.80373 12.71 4.71C12.8037 4.61704 12.8781 4.50644 12.9289 4.38458C12.9797 4.26272 13.0058 4.13201 13.0058 4C13.0058 3.86799 12.9797 3.73728 12.9289 3.61542C12.8781 3.49356 12.8037 3.38296 12.71 3.29L9.71 0.29C9.61704 0.196272 9.50644 0.121877 9.38458 0.0711086C9.26272 0.0203399 9.13201 -0.00579834 9 -0.00579834C8.86799 -0.00579834 8.73728 0.0203399 8.61542 0.0711086C8.49356 0.121877 8.38296 0.196272 8.29 0.29L5.29 3.29C5.1017 3.4783 4.99591 3.7337 4.99591 4C4.99591 4.2663 5.1017 4.5217 5.29 4.71C5.4783 4.8983 5.7337 5.00409 6 5.00409C6.2663 5.00409 6.5217 4.8983 6.71 4.71ZM15 7H13C12.7348 7 12.4804 7.10536 12.2929 7.29289C12.1054 7.48043 12 7.73478 12 8C12 8.26522 12.1054 8.51957 12.2929 8.70711C12.4804 8.89464 12.7348 9 13 9H15C15.2652 9 15.5196 9.10536 15.7071 9.29289C15.8946 9.48043 16 9.73478 16 10V17C16 17.2652 15.8946 17.5196 15.7071 17.7071C15.5196 17.8946 15.2652 18 15 18H3C2.73478 18 2.48043 17.8946 2.29289 17.7071C2.10536 17.5196 2 17.2652 2 17V10C2 9.73478 2.10536 9.48043 2.29289 9.29289C2.48043 9.10536 2.73478 9 3 9H5C5.26522 9 5.51957 8.89464 5.70711 8.70711C5.89464 8.51957 6 8.26522 6 8C6 7.73478 5.89464 7.48043 5.70711 7.29289C5.51957 7.10536 5.26522 7 5 7H3C2.20435 7 1.44129 7.31607 0.87868 7.87868C0.316071 8.44129 0 9.20435 0 10V17C0 17.7956 0.316071 18.5587 0.87868 19.1213C1.44129 19.6839 2.20435 20 3 20H15C15.7956 20 16.5587 19.6839 17.1213 19.1213C17.6839 18.5587 18 17.7956 18 17V10C18 9.20435 17.6839 8.44129 17.1213 7.87868C16.5587 7.31607 15.7956 7 15 7Z" fill="#222222"/>
</svg>
